<svg width="512" height="512" xmlns="http://www.w3.org/2000/svg">
 <!-- Created with UXWing SVG Editor - https://uxwing.com/svg-icon-editor/ -->

 <g>
  <title>background</title>
  <rect fill="none" id="canvas_background" height="514" width="514" y="-1" x="-1"/>
  <g display="none" overflow="visible" y="0" x="0" height="100%" width="100%" id="canvasGrid">
   <rect fill="url(#gridpattern)" stroke-width="0" y="0" x="0" height="100%" width="100%"/>
  </g>
 </g>
 <g>
  <title>Layer 1</title>
  <g id="svg_7">
   <g transform="matrix(2.6409086065143583,0,0,2.6409086065143583,0,0) " id="svg_5">
    <path fill="#ffffff" id="svg_6" d="m49.746331,50.141331l20.51,0l0,-9.32l0,0l0.01,0c0,-1.47 0.6,-2.8 1.56,-3.76c0.95,-0.95 2.28,-1.55 3.75,-1.55l0,-0.01l0,0l39.61,0l1.22,0l0.88,0.88l31.29,31.41l0.87,2.09l0,69.2l0,0l-0.01,0c0,1.47 -0.59,2.8 -1.55,3.76l-0.01,0c-0.95,0.96 -2.28,1.55 -3.75,1.55l0,0.01l0,0l-20.51,0l0,8.65l0,0l-0.01,0c0,1.47 -0.59,2.8 -1.55,3.76l-0.01,0c-0.96,0.95 -2.28,1.55 -3.75,1.55l0,0.01l0,0l-68.55,0l0,0l0,-0.01c-1.47,0 -2.8,-0.6 -3.76,-1.56c-0.95,-0.96 -1.55,-2.28 -1.55,-3.75l-0.01,0l0,0l0,-97.58l0,0l0.01,0c0,-1.47 0.6,-2.8 1.56,-3.76c0.95,-0.95 2.28,-1.55 3.75,-1.55l0,-0.02l0,0l0,0zm26.44,0l13.17,0l1.22,0l0.88,0.88l31.29,31.41l0.87,2.09l0,53.95l19.89,0l0,-66.73l-24.35,0l0,0l0,0c-1.78,0 -3.39,-0.74 -4.56,-1.94c-1.17,-1.19 -1.9,-2.84 -1.9,-4.65l0,0l0,0l0,-23.71l-36.51,0l0,8.7l0,0zm36.63,-11.67l2.37,0l31.29,31.41l0,1.74l-27.32,0c-3.49,0 -6.35,-2.92 -6.35,-6.48l0,-26.67l0.01,0zm4.87,47.91l-24.35,0l0,0l0,0c-1.78,0 -3.39,-0.74 -4.56,-1.94c-1.17,-1.19 -1.9,-2.84 -1.9,-4.65l0,0l0,0l0,-23.71l-16.62,0l-19.89,0l0,96.36l67.32,0l0,-8.04l0,-2.97l0,-55.05l0,0z"/>
   </g>
  </g>
 </g>
</svg>